Coordinates
version=1
nRows=16
nColumns=40
inDegrees=yes

Units are S.I. units (second, meters, Newtons, ...)
Angles are in degrees.

endheader
time	pelvis_tilt	pelvis_list	pelvis_rotation	pelvis_tx	pelvis_ty	pelvis_tz	hip_flexion_r	hip_adduction_r	hip_rotation_r	knee_angle_r	knee_angle_r_beta	ankle_angle_r	subtalar_angle_r	mtp_angle_r	hip_flexion_l	hip_adduction_l	hip_rotation_l	knee_angle_l	knee_angle_l_beta	ankle_angle_l	subtalar_angle_l	mtp_angle_l	lumbar_extension	lumbar_bending	lumbar_rotation	arm_flex_r	arm_add_r	arm_rot_r	elbow_flex_r	pro_sup_r	wrist_flex_r	wrist_dev_r	arm_flex_l	arm_add_l	arm_rot_l	elbow_flex_l	pro_sup_l	wrist_flex_l	wrist_dev_l
      4.82528571	     -3.15366190	     -6.28565034	     -2.79823317	      1.02527569	      0.93877305	      0.43761754	     29.65061256	     -2.41183138	     -6.96170190	     44.28999158	     44.28999158	      6.49639111	     -6.68540024	      0.44018946	     12.01968102	     -7.28125992	     -9.34124782	     18.76560319	     18.76560319	     11.83912801	     -9.24104787	     -3.14796155	    -11.97202390	      4.46466291	     -0.30437348	     -4.65662782	    -16.03334325	    -13.86179421	     33.41417958	     46.50348158	      0.00000000	      0.00000000	     23.64789250	    -16.58109511	      7.36892227	     25.85433985	     45.70499932	      0.00000000	      0.00000000
      4.83807143	     -3.33442503	     -6.30598971	     -3.11101368	      1.02389611	      0.93875882	      0.43783633	     29.28741673	     -2.11292850	     -7.07464840	     40.55817693	     40.55817693	      5.86346950	     -5.78613477	     -1.37726502	     11.66372526	     -7.24051476	     -9.36371109	     18.28714783	     18.28714783	     11.40079553	     -9.89362633	     -4.00920702	    -11.97813224	      4.44077970	     -0.34941467	     -3.91046712	    -15.29651348	    -16.53815426	     29.66801072	     46.80476970	      0.00000000	      0.00000000	     23.73380037	    -16.88032858	      7.88801935	     25.67375551	     45.64549395	      0.00000000	      0.00000000
      4.85085714	     -3.56274951	     -6.39469942	     -3.40822237	      1.02246888	      0.93862923	      0.43813040	     28.92231977	     -1.71501993	     -7.23016794	     36.84921913	     36.84921913	      5.84737202	     -4.46497427	     -0.91473075	     11.47509182	     -7.34396222	     -9.53091477	     18.06999849	     18.06999849	     11.50363723	     -9.96451692	     -4.00597453	    -12.02083351	      4.53908332	     -0.34219210	     -4.47856713	    -15.02180116	    -16.70945290	     29.47377659	     46.81470475	      0.00000000	      0.00000000	     23.73310631	    -17.03520911	      7.89737740	     25.77310697	     45.64632941	      0.00000000	      0.00000000
      4.86364286	     -3.89091184	     -6.37679178	     -3.74609821	      1.02099633	      0.93820035	      0.43859018	     28.65778866	     -1.37029234	     -7.33276437	     33.22365881	     33.22365881	      5.74565058	     -3.12880697	     -0.37636019	     11.42350066	     -7.36103867	     -9.76341384	     17.90374540	     17.90374540	     11.59080916	    -10.06683675	     -4.02930137	    -11.94177494	      4.49064111	     -0.32414686	     -4.92441187	    -14.69595385	    -16.78966297	     29.26754084	     46.82157964	      0.00000000	      0.00000000	     23.75864839	    -17.20917630	      7.90350313	     25.83441450	     45.64702575	      0.00000000	      0.00000000
      4.87642857	     -4.02539548	     -6.43768604	     -4.02363086	      1.01978080	      0.93809299	      0.43897886	     27.97113120	     -1.00183897	     -7.75979761	     29.47087877	     29.47087877	      5.57410530	     -1.42307463	      0.23273930	     11.12191895	     -7.43856069	     -9.94798431	     17.69391912	     17.69391912	     11.70141250	    -10.08687076	     -4.07163168	    -12.04551062	      4.60388906	     -0.25711458	     -5.25199104	    -14.55945264	    -16.94184457	     29.00712616	     46.83645957	      0.00000000	      0.00000000	     23.82336489	    -17.27364915	      7.94600777	     25.96669210	     45.64306690	      0.00000000	      0.00000000
      4.88921429	     -4.21014907	     -6.34997624	     -4.33345120	      1.01859546	      0.93772149	      0.43945408	     27.41144752	     -0.75868368	     -8.19727122	     26.08617072	     26.08617072	      5.39828759	      0.26227654	      0.89685704	     10.89321131	     -7.38298328	    -10.25227662	     17.52177673	     17.52177673	     11.79659008	    -10.05367772	     -4.15544489	    -12.09513072	      4.53732267	     -0.14545756	     -5.42759630	    -14.36044369	    -17.11851645	     28.75032083	     46.85313411	      0.00000000	      0.00000000	     23.88743464	    -17.38851021	      8.01080263	     26.12921231	     45.63559844	      0.00000000	      0.00000000
      4.90200000	     -4.44590237	     -6.28953780	     -4.64006238	      1.01753812	      0.93723204	      0.44006891	     26.89912323	     -0.44838854	     -8.68355138	     23.01447400	     23.01447400	      5.08479149	      1.75882029	      1.69305719	     10.70590727	     -7.36202761	    -10.51708253	     17.34561439	     17.34561439	     11.95511505	    -10.02883569	     -4.26146231	    -12.00375497	      4.47792301	     -0.10288391	     -5.53266414	    -14.20750365	    -17.25160701	     28.56450713	     46.86553275	      0.00000000	      0.00000000	     23.92144977	    -17.42730785	      8.08293138	     26.29486248	     45.62585364	      0.00000000	      0.00000000
      4.91478571	     -4.56083591	     -6.15047401	     -4.93955362	      1.01669076	      0.93681191	      0.44069801	     26.32355451	     -0.25621586	     -9.32222174	     20.46570458	     20.46570458	      4.89009879	      3.34891643	      2.62274845	     10.39314339	     -7.26702206	    -10.90182187	     17.20741712	     17.20741712	     12.14591532	     -9.85791017	     -4.42004013	    -12.03547318	      4.34738957	     -0.02120130	     -5.48211422	    -14.10408135	    -17.45916337	     28.39262649	     46.88157999	      0.00000000	      0.00000000	     23.93763981	    -17.51393645	      8.21177963	     26.63549657	     45.60623987	      0.00000000	      0.00000000
      4.92757143	     -4.78886012	     -6.01729564	     -5.22034806	      1.01592598	      0.93618721	      0.44142871	     25.94329674	     -0.02346892	     -9.89080672	     18.44945287	     18.44945287	      4.60355447	      4.40538646	      3.43286527	     10.21258909	     -7.18568469	    -11.21152114	     17.08376872	     17.08376872	     12.32374648	     -9.74843323	     -4.52750786	    -11.86280469	      4.24466451	      0.02898152	     -5.41656968	    -14.00825607	    -17.57373375	     28.35287573	     46.88727231	      0.00000000	      0.00000000	     23.90612422	    -17.53172925	      8.31702237	     26.93496249	     45.58874363	      0.00000000	      0.00000000
      4.94035714	     -4.92747145	     -5.85658744	     -5.48547588	      1.01536565	      0.93565525	      0.44220169	     25.51805635	      0.13996455	    -10.51041539	     16.98130371	     16.98130371	      4.41402875	      5.41313839	      4.20546257	      9.92851435	     -7.07506660	    -11.57410637	     16.97038244	     16.97038244	     12.54149929	     -9.55648797	     -4.65578373	    -11.78965770	      4.11405127	      0.08848912	     -5.23788916	    -13.97131701	    -17.70345740	     28.38765255	     46.89102744	      0.00000000	      0.00000000	     23.85519220	    -17.55756613	      8.46411915	     27.38467009	     45.56412915	      0.00000000	      0.00000000
      4.95314286	     -5.14220113	     -5.55038173	     -5.75210350	      1.01485093	      0.93482670	      0.44301713	     25.40289925	      0.15310157	    -10.78734304	     16.30956227	     16.30956227	      4.24990467	      5.72446612	      4.51177429	      9.79679507	     -6.80826771	    -11.86761717	     16.96055838	     16.96055838	     12.75815600	     -9.55450270	     -4.75659140	    -11.54756737	      3.83453491	      0.16942241	     -4.95310169	    -13.95836643	    -17.72871991	     28.51953144	     46.88771784	      0.00000000	      0.00000000	     23.92016426	    -17.49857989	      8.52635446	     27.61782076	     45.55510491	      0.00000000	      0.00000000
      4.96592857	     -5.17356267	     -5.49178239	     -5.92887729	      1.01489086	      0.93445175	      0.44392765	     24.77521958	      0.35370975	    -11.44691061	     15.57007162	     15.57007162	      4.08622579	      6.47042291	      4.95235391	      9.32436820	     -6.79759491	    -12.18889952	     16.78437732	     16.78437732	     13.04495066	     -9.20610736	     -4.85308457	    -11.45236049	      3.84356660	      0.20364355	     -4.77219350	    -13.97959224	    -17.82201708	     28.73870022	     46.88097724	      0.00000000	      0.00000000	     23.71904944	    -17.53076852	      8.70405032	     28.27142053	     45.52157896	      0.00000000	      0.00000000
      4.97871429	     -5.31064256	     -5.33339685	     -6.04382939	      1.01498204	      0.93363748	      0.44483674	     24.51637961	      0.42397600	    -11.65401378	     15.60924393	     15.60924393	      4.03429390	      6.38743548	      4.98765173	      9.09835618	     -6.67226428	    -12.28925518	     16.80790179	     16.80790179	     13.30777126	     -9.28517756	     -4.94214088	    -11.14092934	      3.75765970	      0.24881469	     -4.57249599	    -14.02443361	    -17.82545825	     28.83523035	     46.87855343	      0.00000000	      0.00000000	     23.76530888	    -17.45040982	      8.72863813	     28.36270189	     45.51854234	      0.00000000	      0.00000000
      4.99150000	     -5.37979284	     -5.09567457	     -6.18747856	      1.01521004	      0.93293175	      0.44575693	     24.09095542	      0.40256139	    -11.69202391	     15.70502400	     15.70502400	      4.04221023	      6.47217241	      4.97384789	      8.77586778	     -6.45818521	    -12.44767254	     16.80395956	     16.80395956	     13.59147227	     -9.20928008	     -5.03696510	    -10.95322408	      3.62885745	      0.31830902	     -4.02237990	    -14.16351789	    -17.83843803	     29.15177713	     46.86953843	      0.00000000	      0.00000000	     23.77036832	    -17.16369131	      8.82996015	     28.68097471	     45.50249703	      0.00000000	      0.00000000
      5.00428571	     -5.50936181	     -4.96304727	     -6.20593791	      1.01578467	      0.93212284	      0.44677851	     23.63196464	      0.45463593	    -11.74684672	     15.83854293	     15.83854293	      4.04650913	      6.43815017	      4.96224685	      8.52694188	     -6.36037401	    -12.48664113	     16.82532169	     16.82532169	     13.81778282	     -9.24198132	     -5.11252756	    -10.54640123	      3.59841896	      0.36153090	     -3.85556720	    -14.21210101	    -17.84239162	     29.25079282	     46.86683923	      0.00000000	      0.00000000	     23.80675018	    -17.12072800	      8.84817864	     28.77220288	     45.50012347	      0.00000000	      0.00000000
      5.01707143	     -5.22319909	     -4.70080794	     -6.28810746	      1.01679161	      0.93167440	      0.44787112	     22.81189304	      0.31846867	    -11.52385491	     16.22185071	     16.22185071	      4.04868065	      6.47000437	      3.53591323	      7.72020316	     -6.19253212	    -13.29892914	     16.81776006	     16.81776006	     14.80270392	     -7.80118063	     -4.59250353	    -10.76552751	      3.41929958	     -0.12372695	     -3.70356630	    -14.37381896	    -17.69820505	     32.07370234	     46.70157417	      0.00000000	      0.00000000	     21.87445417	    -18.22525109	     10.58544589	     33.57474398	     45.20767653	      0.00000000	      0.00000000
